Patient4_TMGait_0pt3_01_right_16_GRF.mot
version=1
nRows=78
nColumns=19
inDegrees=no
endheader
time	F1x	F1y	F1z	M1x	M1y	M1z	F2x	F2y	F2z	M2x	M2y	M2z	EC1x	EC1y	EC1z	EC2x	EC2y	EC2z
28.75	-14.4906	749.9641	48.3456	-306.5815	-53.922	757.5351	-2.6327	11.4997	-2.6825	4.1716	2.7442	8.75	-0.0592	0.0182	-0.0073	-0.0462	0.0165	0.9585
28.7691	-14.7707	764.8079	50.5379	-311.7959	-56.1968	771.1948	-2.3685	9.2953	-2.0623	3.3273	2.2812	7.3816	-0.0592	0.0182	-0.0073	-0.0462	0.0165	0.9585
28.7881	-15.1511	781.7643	52.9148	-317.8399	-58.6068	786.5974	-1.9027	7.0475	-1.4109	2.4922	1.7067	5.8929	-0.0592	0.0182	-0.0073	-0.0462	0.0165	0.9585
28.8072	-15.4983	799.7604	55.2473	-324.325	-60.8557	802.6483	-1.3909	5.0998	-0.83441	1.7817	1.1509	4.562	-0.0592	0.0182	-0.0073	-0.0462	0.0165	0.9585
28.8263	-15.6143	817.5901	57.308	-330.7944	-62.6404	818.1176	-0.93458	3.6012	-0.37872	1.2433	0.68367	3.5299	-0.0592	0.0182	-0.0073	-0.0462	0.0165	0.9585
28.8454	-15.2972	833.8799	58.9165	-336.7103	-63.7124	831.6215	-0.57929	2.5617	-0.050552	0.87537	0.33242	2.8188	-0.0592	0.0182	-0.0073	-0.0462	0.0165	0.9585
28.8644	-14.4027	847.0482	59.9658	-341.4399	-63.9263	841.6013	-0.33392	1.9078	0.16378	0.64749	0.094427	2.3746	-0.0592	0.0182	-0.0073	-0.0462	0.0165	0.9585
28.8835	-12.8702	855.4203	60.409	-344.3071	-63.2308	846.4421	-0.1902	1.5228	0.28827	0.51528	-0.047274	2.1072	-0.0592	0.0182	-0.0073	-0.0462	0.0165	0.9585
28.9026	-10.7151	857.532	60.2329	-344.721	-61.6342	844.7542	-0.13105	1.2714	0.35074	0.42908	-0.11596	1.903	-0.0592	0.0182	-0.0073	-0.0462	0.0165	0.9585
28.9216	-7.9877	852.4938	59.4383	-342.3299	-59.1719	835.7147	-0.13196	1.0116	0.37625	0.33786	-0.13862	1.6332	-0.0592	0.0182	-0.0073	-0.0462	0.0165	0.9585
28.9407	-4.7359	840.2589	58.0499	-337.1293	-55.9036	819.3147	-0.16618	0.60713	0.38482	0.19308	-0.14285	1.1676	-0.0592	0.0182	-0.0073	-0.0462	0.0165	0.9585
28.9598	-0.98	821.7395	56.1456	-329.5007	-51.9278	796.4569	-0.20821	-0.064648	0.39156	-0.04891	-0.15025	0.38322	-0.0592	0.0182	-0.0073	-0.0462	0.0165	0.9585
28.9789	3.3018	798.7681	53.8686	-320.1873	-47.3834	768.9138	-0.23043	-1.0953	0.40578	-0.42041	-0.17704	-0.80861	-0.0592	0.0182	-0.0073	-0.0462	0.0165	0.9585
28.9979	8.1469	773.856	51.4126	-310.191	-42.449	739.1089	-0.20111	-2.5168	0.42762	-0.93227	-0.23227	-2.433	-0.0592	0.0182	-0.0073	-0.0462	0.0165	0.9585
29.017	13.568	749.8062	48.9935	-300.616	-37.3285	709.7472	-0.077563	-4.2681	0.45147	-1.5616	-0.32545	-4.4165	-0.0592	0.0182	-0.0073	-0.0462	0.0165	0.9585
29.0361	19.5471	729.2616	46.8323	-292.4899	-32.2363	683.3943	0.19253	-6.1369	0.47013	-2.2332	-0.46414	-6.5248	-0.0592	0.0182	-0.0073	-0.0462	0.0165	0.9585
29.0551	26.013	714.2557	45.1371	-286.5842	-27.3941	662.0719	0.66254	-7.6941	0.47286	-2.7955	-0.65135	-8.284	-0.0592	0.0182	-0.0073	-0.0462	0.0165	0.9585
29.0742	32.8254	705.8273	44.0842	-283.2655	-23.0211	646.9055	1.3751	-8.2306	0.44117	-2.9968	-0.87867	-8.9165	-0.0592	0.0182	-0.0073	-0.0462	0.0165	0.9585
29.0933	39.7724	703.8127	43.7799	-282.4235	-19.3038	637.9349	2.3428	-6.7078	0.34879	-2.4652	-1.1169	-7.2808	-0.0592	0.0182	-0.0073	-0.0462	0.0165	0.9585
29.1124	46.5612	706.8352	44.2371	-283.4689	-16.3765	634.1256	3.5229	-1.7405	0.16239	-0.70353	-1.3072	-1.8485	-0.0592	0.0182	-0.0073	-0.0462	0.0165	0.9585
29.1314	52.7953	712.4937	45.3831	-285.411	-14.339	633.5413	4.7837	8.338	-0.15314	2.8869	-1.3581	9.2229	-0.0592	0.0182	-0.0073	-0.0462	0.0165	0.9585
29.1505	57.9748	717.6768	47.0444	-286.993	-13.2458	633.6003	5.8638	25.278	-0.62483	8.9348	-1.1418	27.87	-0.0592	0.0182	-0.0073	-0.0462	0.0165	0.9585
29.1696	61.5429	718.9183	48.9172	-286.8503	-13.0665	631.3767	6.3291	50.5282	-1.2601	17.9627	-0.49011	55.7094	-0.0592	0.0182	-0.0073	-0.0462	0.0165	0.9585
29.1886	63.0224	712.82	50.5949	-283.6771	-13.656	623.9472	5.5334	84.6547	-2.0432	30.1813	0.80967	93.395	-0.0592	0.0182	-0.0073	-0.0462	0.0165	0.9585
29.2077	62.1994	696.6621	51.649	-276.4529	-14.7488	608.8854	2.9083	126.9675	-2.9621	45.3511	2.9373	140.1967	-0.0592	0.0182	-0.0073	-0.0462	0.0165	0.9585
29.2268	59.2053	669.1205	51.7117	-264.7114	-15.9942	584.8826	-1.3675	175.5409	-4.0736	62.7742	5.8842	193.9832	-0.0592	0.0182	-0.0073	-0.0462	0.0165	0.9585
29.2459	54.4932	630.7703	50.5517	-248.7317	-17.0233	552.21	-6.5344	226.8104	-5.6146	81.1407	9.6283	250.7436	-0.0592	0.0182	-0.0073	-0.0462	0.0165	0.9585
29.2649	48.787	584.2337	48.1597	-229.5958	-17.5323	512.8567	-11.5753	276.2821	-7.9344	98.7959	14.1721	305.4028	-0.0592	0.0182	-0.0073	-0.0462	0.0165	0.9585
29.284	42.9556	533.7631	44.7864	-209.0187	-17.3641	470.2057	-15.7459	320.7806	-10.9394	114.5779	19.1351	354.4039	-0.0592	0.0182	-0.0073	-0.0462	0.0165	0.9585
29.3031	37.7732	484.0257	40.8431	-188.8652	-16.5245	428.0489	-18.7762	358.7935	-14.1524	127.9504	23.8998	396.1302	-0.0592	0.0182	-0.0073	-0.0462	0.0165	0.9585
29.3221	33.6977	438.7991	36.7254	-170.6349	-15.1314	389.5188	-20.7371	389.8262	-16.9685	138.7581	27.8399	430.1637	-0.0592	0.0182	-0.0073	-0.0462	0.0165	0.9585
29.3412	30.8389	400.2835	32.7392	-155.1878	-13.3669	356.4922	-21.9135	414.0559	-18.9749	147.0766	30.6178	456.8598	-0.0592	0.0182	-0.0073	-0.0462	0.0165	0.9585
29.3603	29.0608	368.9657	29.1236	-142.6913	-11.459	329.419	-22.7289	432.3185	-20.138	153.1904	32.3547	477.3014	-0.0592	0.0182	-0.0073	-0.0462	0.0165	0.9585
29.3794	28.0933	343.7968	26.0512	-132.7005	-9.6403	307.4236	-23.6735	446.1255	-20.7625	157.6049	33.5555	493.267	-0.0592	0.0182	-0.0073	-0.0462	0.0165	0.9585
29.3984	27.599	322.6133	23.5811	-124.3358	-8.0843	288.6639	-25.1914	457.5195	-21.2814	161.0168	34.8399	507.029	-0.0592	0.0182	-0.0073	-0.0462	0.0165	0.9585
29.4175	27.205	302.6994	21.6201	-116.5123	-6.8598	270.8284	-27.5103	468.7895	-22.0425	164.2324	36.6552	521.0067	-0.0592	0.0182	-0.0073	-0.0462	0.0165	0.9585
29.4366	26.5279	281.3948	19.9547	-108.181	-5.9461	251.6561	-30.5563	482.1559	-23.2487	168.0583	39.1844	537.4134	-0.0592	0.0182	-0.0073	-0.0462	0.0165	0.9585
29.4556	25.2092	256.7399	18.3356	-98.5758	-5.2853	229.491	-34.0139	499.5269	-25.01	173.2048	42.4256	558.0419	-0.0592	0.0182	-0.0073	-0.0462	0.0165	0.9585
29.4747	22.9901	227.978	16.5772	-87.4058	-4.8299	203.7222	-37.4759	522.2456	-27.3415	180.1897	46.2476	584.0693	-0.0592	0.0182	-0.0073	-0.0462	0.0165	0.9585
29.4938	19.8196	195.7118	14.6218	-74.9094	-4.5539	174.9029	-40.5528	550.7798	-30.1428	189.2303	50.4069	615.7736	-0.0592	0.0182	-0.0073	-0.0462	0.0165	0.9585
29.5129	15.9006	161.6336	12.5336	-61.7451	-4.4311	144.5193	-42.9505	584.4855	-33.2064	200.1585	54.5785	652.3118	-0.0592	0.0182	-0.0073	-0.0462	0.0165	0.9585
29.5319	11.6261	127.9003	10.4327	-48.747	-4.4082	114.454	-44.5124	621.5667	-36.255	212.399	58.4087	691.6915	-0.0592	0.0182	-0.0073	-0.0462	0.0165	0.9585
29.551	7.437	96.4841	8.4224	-36.6755	-4.3984	86.4341	-45.2092	659.3948	-39.0253	225.0689	61.602	731.1039	-0.0592	0.0182	-0.0073	-0.0462	0.0165	0.9585
29.5701	3.7112	68.8188	6.5664	-26.0784	-4.3078	61.7308	-45.1129	695.1464	-41.3509	237.1906	63.9999	767.5907	-0.0592	0.0182	-0.0073	-0.0462	0.0165	0.9585
29.5891	0.74014	45.7413	4.8997	-17.2688	-4.0553	41.0988	-44.3826	726.4723	-43.1781	247.9276	65.5923	798.7434	-0.0592	0.0182	-0.0073	-0.0462	0.0165	0.9585
29.6082	-1.2708	27.5459	3.445	-10.3472	-3.5868	24.8075	-43.2391	751.9861	-44.519	256.7648	66.4622	823.2041	-0.0592	0.0182	-0.0073	-0.0462	0.0165	0.9585
29.6273	-2.273	14.1002	2.2241	-5.2521	-2.9099	12.746	-41.9216	771.4628	-45.4052	263.5855	66.7233	840.8579	-0.0592	0.0182	-0.0073	-0.0462	0.0165	0.9585
29.6464	-2.4989	4.9814	1.2694	-1.8128	-2.1472	4.553	-40.6476	785.6539	-45.879	268.6124	66.4971	852.6196	-0.0592	0.0182	-0.0073	-0.0462	0.0165	0.9585
29.6654	-2.2753	-0.53206	0.58916	0.25307	-1.4395	-0.40136	-39.5643	795.8467	-46.0002	272.2582	65.902	859.9469	-0.0592	0.0182	-0.0073	-0.0462	0.0165	0.9585
29.6845	-1.8397	-3.3307	0.14888	1.2894	-0.85774	-2.9095	-38.6971	803.4043	-45.8502	274.9715	65.04	864.3349	-0.0592	0.0182	-0.0073	-0.0462	0.0165	0.9585
29.7036	-1.3493	-4.2738	-0.10337	1.6249	-0.42485	-3.7436	-37.944	809.3723	-45.5083	277.1002	63.975	866.896	-0.0592	0.0182	-0.0073	-0.0462	0.0165	0.9585
29.7226	-0.898	-4.0891	-0.21988	1.5364	-0.13557	-3.5586	-37.144	814.249	-45.0218	278.8098	62.7204	868.1422	-0.0592	0.0182	-0.0073	-0.0462	0.0165	0.9585
29.7417	-0.53561	-3.3317	-0.24765	1.2359	0.026681	-2.86	-36.1368	817.9761	-44.4058	280.0778	61.2489	867.9998	-0.0592	0.0182	-0.0073	-0.0462	0.0165	0.9585
29.7608	-0.28211	-2.3921	-0.22275	0.87226	0.084203	-2.0049	-34.7911	820.0888	-43.66	280.7412	59.5196	865.9768	-0.0592	0.0182	-0.0073	-0.0462	0.0165	0.9585
29.7799	-0.13575	-1.5213	-0.17034	0.54207	0.063076	-1.2243	-33.0108	819.9688	-42.7848	280.5841	57.4988	861.4308	-0.0592	0.0182	-0.0073	-0.0462	0.0165	0.9585
29.7989	-0.082632	-0.86701	-0.10547	0.30273	-0.011427	-0.65799	-30.7441	817.0967	-41.7782	279.4268	55.1653	853.8338	-0.0592	0.0182	-0.0073	-0.0462	0.0165	0.9585
29.818	-0.10535	-0.50777	-0.036942	0.18543	-0.11719	-0.38557	-27.9712	811.2319	-40.629	277.1901	52.5015	842.954	-0.0592	0.0182	-0.0073	-0.0462	0.0165	0.9585
29.8371	-0.18379	-0.48134	0.030465	0.20182	-0.23713	-0.44915	-24.6748	802.5035	-39.3327	273.9262	49.5046	828.9346	-0.0592	0.0182	-0.0073	-0.0462	0.0165	0.9585
29.8561	-0.29218	-0.78968	0.09269	0.34946	-0.3542	-0.85546	-20.8402	791.4119	-37.9038	269.8162	46.1976	812.297	-0.0592	0.0182	-0.0073	-0.0462	0.0165	0.9585
29.8752	-0.40106	-1.3922	0.14255	0.61155	-0.4482	-1.5676	-16.4938	778.7625	-36.3772	265.1421	42.64	793.8972	-0.0592	0.0182	-0.0073	-0.0462	0.0165	0.9585
29.8943	-0.46677	-2.1955	0.17001	0.9523	-0.49319	-2.4952	-11.7289	765.5747	-34.8253	260.2559	38.9486	774.8379	-0.0592	0.0182	-0.0073	-0.0462	0.0165	0.9585
29.9134	-0.43171	-3.0409	0.16002	1.3088	-0.45208	-3.4744	-6.697	752.9806	-33.3497	255.5482	35.2862	756.3495	-0.0592	0.0182	-0.0073	-0.0462	0.0165	0.9585
29.9324	-0.22057	-3.6769	0.092458	1.5773	-0.27379	-4.2335	-1.586	742.0967	-32.0493	251.4095	31.8204	739.6503	-0.0592	0.0182	-0.0073	-0.0462	0.0165	0.9585
29.9515	0.25728	-3.7325	-0.054105	1.5992	0.10349	-4.3585	3.4072	733.8406	-31.0204	248.1646	28.7107	725.749	-0.0592	0.0182	-0.0073	-0.0462	0.0165	0.9585
29.9706	1.0989	-2.6905	-0.30063	1.1507	0.74676	-3.2612	8.0894	728.7173	-30.3769	245.9931	26.12	715.2188	-0.0592	0.0182	-0.0073	-0.0462	0.0165	0.9585
29.9896	2.3864	0.11917	-0.65965	-0.05866	1.7089	-0.1744	12.29	726.6405	-30.2339	244.8702	24.1955	708.0203	-0.0592	0.0182	-0.0073	-0.0462	0.0165	0.9585
30.0087	4.1595	5.4769	-1.1277	-2.3658	3.0027	5.7903	15.9032	726.8792	-30.6513	244.5535	23.0119	703.449	-0.0592	0.0182	-0.0073	-0.0462	0.0165	0.9585
30.0278	6.3697	14.1675	-1.6712	-6.104	4.5662	15.5257	18.8771	728.1285	-31.5929	244.6091	22.5428	700.2235	-0.0592	0.0182	-0.0073	-0.0462	0.0165	0.9585
30.0469	8.8114	26.7768	-2.2071	-11.5179	6.2159	29.7091	21.182	728.6903	-32.9297	244.4723	22.6747	696.6897	-0.0592	0.0182	-0.0073	-0.0462	0.0165	0.9585
30.0659	11.0135	43.413	-2.5971	-18.6431	7.5941	48.4848	22.808	726.7446	-34.4626	243.54	23.2278	691.0934	-0.0592	0.0182	-0.0073	-0.0462	0.0165	0.9585
30.085	12.226	63.408	-2.6612	-27.1793	8.1802	71.1293	23.7906	720.7519	-35.94	241.3045	23.9605	681.9577	-0.0592	0.0182	-0.0073	-0.0462	0.0165	0.9585
30.1041	11.9292	85.3087	-2.1881	-36.4872	7.5152	96.0397	24.2126	709.8943	-37.1016	237.4995	24.6083	668.5083	-0.0592	0.0182	-0.0073	-0.0462	0.0165	0.9585
30.1231	10.3158	107.3212	-0.99778	-45.7819	5.4737	121.1782	24.2061	694.359	-37.7514	232.187	24.953	650.9424	-0.0592	0.0182	-0.0073	-0.0462	0.0165	0.9585
30.1422	7.8752	127.7765	0.85086	-54.3577	2.3352	144.5764	23.9568	675.3058	-37.8171	225.7397	24.8757	630.3831	-0.0592	0.0182	-0.0073	-0.0462	0.0165	0.9585
30.1613	5.0381	146.0275	2.9741	-61.9714	-1.2648	165.4253	23.693	654.6153	-37.3464	218.7569	24.3556	608.6293	-0.0592	0.0182	-0.0073	-0.0462	0.0165	0.9585
30.1804	2.0106	162.9927	5.0291	-69.0417	-4.846	184.7124	23.6154	634.2835	-36.483	211.8656	23.4698	587.5885	-0.0592	0.0182	-0.0073	-0.0462	0.0165	0.9585
30.1994	-1.117	180.4604	6.8653	-76.3458	-8.2059	204.4236	23.7817	615.5335	-35.4108	205.4318	22.3799	568.4556	-0.0592	0.0182	-0.0073	-0.0462	0.0165	0.9585
30.2185	-4.2774	200.1328	8.4688	-84.6141	-11.3121	226.45	24.0656	598.2506	-34.2916	199.3847	21.288	551.1837	-0.0592	0.0182	-0.0073	-0.0462	0.0165	0.9585
